<svg width="24" height="22" viewBox="0 0 24 22" fill="none" xmlns="http://www.w3.org/2000/svg">
<mask id="path-1-inside-1_211_2339" fill="white">
<path d="M14.9752 10.8313C14.8076 10.8313 14.652 10.7852 14.5137 10.7111V10.7131C14.5137 10.9768 14.4112 11.2244 14.2253 11.4099C14.0393 11.5958 13.7918 11.6983 13.5284 11.6983C13.3584 11.6983 13.2008 11.6511 13.0611 11.575C13.047 11.8163 12.9505 12.0417 12.7785 12.2139C12.5925 12.3999 12.3451 12.5024 12.0815 12.5024C11.5579 12.5024 11.1326 12.0908 11.102 11.5749C10.94 11.6624 10.7568 11.7083 10.5679 11.6962C10.0527 11.6624 9.64933 11.2174 9.64933 10.6827V6.25109L9.1447 7.12533C8.9525 7.45971 8.59272 7.66732 8.20535 7.66732C8.0166 7.66732 7.83014 7.61779 7.665 7.52317C7.45936 7.40395 7.31225 7.21257 7.25108 6.98362C7.18959 6.75452 7.2214 6.51493 7.34029 6.30959C7.34046 6.30959 8.99136 3.4507 9.09208 3.27509C9.10405 3.24868 9.13816 3.1721 9.16719 3.10683C9.19491 3.04451 9.21869 2.98056 9.24148 2.91627C9.73934 1.51071 10.9721 0.637608 12.4589 0.637608C14.3895 0.637608 15.9602 2.34082 15.9602 4.43438L15.9604 9.84587C15.9604 10.1092 15.8581 10.3567 15.6723 10.5429C15.4863 10.7288 15.2389 10.8313 14.9752 10.8313L14.9752 10.8313ZM12.4589 1.16115C11.1814 1.16115 10.1631 1.88274 9.73495 3.09136C9.70757 3.16811 9.67903 3.24486 9.64574 3.31964C9.54915 3.53627 9.54915 3.53627 9.52193 3.56743L9.51832 3.56431C9.38352 3.81867 8.98305 4.51218 7.79361 6.57161C7.74474 6.65607 7.73178 6.75414 7.75671 6.84794C7.78197 6.94175 7.84248 7.02079 7.92628 7.06917C8.18637 7.21856 8.54258 7.12213 8.69082 6.86385L9.68445 5.14355C9.74382 5.04105 9.86386 4.99071 9.97898 5.02187C10.0934 5.05253 10.173 5.15634 10.173 5.27474V10.6829C10.173 10.938 10.3655 11.1583 10.6022 11.1739C10.7386 11.1811 10.8659 11.1353 10.9615 11.0399C11.0484 10.953 11.0963 10.8372 11.0963 10.7134V7.17638C11.0963 7.03173 11.2135 6.91448 11.3582 6.91448C11.5028 6.91448 11.6201 7.03157 11.6201 7.17638L11.6199 11.5173C11.6199 11.7718 11.827 11.979 12.0815 11.979C12.2052 11.979 12.3213 11.9311 12.4084 11.8442C12.4953 11.7571 12.5432 11.641 12.5432 11.5173V7.17637C12.5432 7.03173 12.6603 6.91447 12.8051 6.91447C12.9497 6.91447 13.067 7.03157 13.067 7.17637L13.0668 10.6727V10.7134C13.0668 10.9677 13.2739 11.1748 13.5286 11.1748C13.6521 11.1748 13.7679 11.1268 13.8554 11.0395C13.9424 10.9528 13.9902 10.837 13.9902 10.7132V7.17619C13.9902 7.03155 14.1073 6.91429 14.2521 6.91429C14.3968 6.91429 14.514 7.03138 14.514 7.17619L14.5137 9.846C14.5137 10.1007 14.7208 10.3078 14.9752 10.3078C15.099 10.3078 15.2148 10.2598 15.3017 10.173C15.3889 10.0858 15.4367 9.96965 15.4367 9.846L15.4368 4.43451C15.4368 2.62978 14.1009 1.1612 12.4589 1.1612L12.4589 1.16115Z"/>
</mask>
<path d="M14.9752 10.8313C14.8076 10.8313 14.652 10.7852 14.5137 10.7111V10.7131C14.5137 10.9768 14.4112 11.2244 14.2253 11.4099C14.0393 11.5958 13.7918 11.6983 13.5284 11.6983C13.3584 11.6983 13.2008 11.6511 13.0611 11.575C13.047 11.8163 12.9505 12.0417 12.7785 12.2139C12.5925 12.3999 12.3451 12.5024 12.0815 12.5024C11.5579 12.5024 11.1326 12.0908 11.102 11.5749C10.94 11.6624 10.7568 11.7083 10.5679 11.6962C10.0527 11.6624 9.64933 11.2174 9.64933 10.6827V6.25109L9.1447 7.12533C8.9525 7.45971 8.59272 7.66732 8.20535 7.66732C8.0166 7.66732 7.83014 7.61779 7.665 7.52317C7.45936 7.40395 7.31225 7.21257 7.25108 6.98362C7.18959 6.75452 7.2214 6.51493 7.34029 6.30959C7.34046 6.30959 8.99136 3.4507 9.09208 3.27509C9.10405 3.24868 9.13816 3.1721 9.16719 3.10683C9.19491 3.04451 9.21869 2.98056 9.24148 2.91627C9.73934 1.51071 10.9721 0.637608 12.4589 0.637608C14.3895 0.637608 15.9602 2.34082 15.9602 4.43438L15.9604 9.84587C15.9604 10.1092 15.8581 10.3567 15.6723 10.5429C15.4863 10.7288 15.2389 10.8313 14.9752 10.8313L14.9752 10.8313ZM12.4589 1.16115C11.1814 1.16115 10.1631 1.88274 9.73495 3.09136C9.70757 3.16811 9.67903 3.24486 9.64574 3.31964C9.54915 3.53627 9.54915 3.53627 9.52193 3.56743L9.51832 3.56431C9.38352 3.81867 8.98305 4.51218 7.79361 6.57161C7.74474 6.65607 7.73178 6.75414 7.75671 6.84794C7.78197 6.94175 7.84248 7.02079 7.92628 7.06917C8.18637 7.21856 8.54258 7.12213 8.69082 6.86385L9.68445 5.14355C9.74382 5.04105 9.86386 4.99071 9.97898 5.02187C10.0934 5.05253 10.173 5.15634 10.173 5.27474V10.6829C10.173 10.938 10.3655 11.1583 10.6022 11.1739C10.7386 11.1811 10.8659 11.1353 10.9615 11.0399C11.0484 10.953 11.0963 10.8372 11.0963 10.7134V7.17638C11.0963 7.03173 11.2135 6.91448 11.3582 6.91448C11.5028 6.91448 11.6201 7.03157 11.6201 7.17638L11.6199 11.5173C11.6199 11.7718 11.827 11.979 12.0815 11.979C12.2052 11.979 12.3213 11.9311 12.4084 11.8442C12.4953 11.7571 12.5432 11.641 12.5432 11.5173V7.17637C12.5432 7.03173 12.6603 6.91447 12.8051 6.91447C12.9497 6.91447 13.067 7.03157 13.067 7.17637L13.0668 10.6727V10.7134C13.0668 10.9677 13.2739 11.1748 13.5286 11.1748C13.6521 11.1748 13.7679 11.1268 13.8554 11.0395C13.9424 10.9528 13.9902 10.837 13.9902 10.7132V7.17619C13.9902 7.03155 14.1073 6.91429 14.2521 6.91429C14.3968 6.91429 14.514 7.03138 14.514 7.17619L14.5137 9.846C14.5137 10.1007 14.7208 10.3078 14.9752 10.3078C15.099 10.3078 15.2148 10.2598 15.3017 10.173C15.3889 10.0858 15.4367 9.96965 15.4367 9.846L15.4368 4.43451C15.4368 2.62978 14.1009 1.1612 12.4589 1.1612L12.4589 1.16115Z" fill="#4CAF4F"/>
<path d="M14.9752 10.8313V9.90321H18.2542L15.4616 11.6217L14.9752 10.8313ZM14.5137 10.7111H13.5856V9.16036L14.9523 9.89317L14.5137 10.7111ZM14.2253 11.4099L13.569 10.7536L13.5699 10.7528L14.2253 11.4099ZM13.0611 11.575L12.1346 11.5209L12.2199 10.0602L13.5049 10.76L13.0611 11.575ZM12.7785 12.2139L13.4351 12.8699L13.4348 12.8702L12.7785 12.2139ZM11.102 11.5749L10.6607 10.7584L11.9421 10.0658L12.0284 11.5198L11.102 11.5749ZM10.5679 11.6962L10.5084 12.6224L10.5071 12.6223L10.5679 11.6962ZM9.64933 6.25109L8.84553 5.78713L10.5774 2.78672V6.25109H9.64933ZM9.1447 7.12533L8.34006 6.66283L8.3409 6.66136L9.1447 7.12533ZM7.665 7.52317L7.20358 8.32844L7.19952 8.32609L7.665 7.52317ZM7.25108 6.98362L8.14744 6.74301L8.14772 6.74405L7.25108 6.98362ZM7.34029 6.30959L6.53713 5.84453L6.80524 5.3815H7.34029V6.30959ZM9.09208 3.27509L9.93734 3.65834L9.91912 3.69853L9.89717 3.73681L9.09208 3.27509ZM9.16719 3.10683L8.31917 2.7297L8.31918 2.72969L9.16719 3.10683ZM9.24148 2.91627L10.1163 3.22615L10.1162 3.2264L9.24148 2.91627ZM15.9602 4.43438L15.0322 4.43441V4.43438H15.9602ZM15.9604 9.84587L16.8885 9.84585V9.84587H15.9604ZM15.6723 10.5429L16.3291 11.1985L16.3285 11.1991L15.6723 10.5429ZM14.9752 10.8313V11.7594H11.6962L14.4888 10.0409L14.9752 10.8313ZM12.4589 1.16115V0.233058H13.6893L13.3513 1.41612L12.4589 1.16115ZM9.73495 3.09136L10.6098 3.40128L10.6091 3.40328L9.73495 3.09136ZM9.64574 3.31964L10.4936 3.69709L10.4934 3.69758L9.64574 3.31964ZM9.52193 3.56743L10.2208 4.17808L9.61368 4.87297L8.91531 4.26983L9.52193 3.56743ZM9.51832 3.56431L8.69827 3.12971L9.24359 2.10075L10.1249 2.86191L9.51832 3.56431ZM7.79361 6.57161L8.59729 7.03579L8.59691 7.03645L7.79361 6.57161ZM7.75671 6.84794L6.86053 7.08922L6.85975 7.08632L7.75671 6.84794ZM7.92628 7.06917L7.46401 7.87394L7.46228 7.87294L7.92628 7.06917ZM8.69082 6.86385L7.88587 6.40187L7.88715 6.39966L8.69082 6.86385ZM9.68445 5.14355L8.88078 4.67936L8.88135 4.67838L9.68445 5.14355ZM9.97898 5.02187L9.73881 5.91835L9.73651 5.91773L9.97898 5.02187ZM10.6022 11.1739L10.5531 12.1007L10.5412 12.0999L10.6022 11.1739ZM10.9615 11.0399L11.6177 11.6961L11.6172 11.6967L10.9615 11.0399ZM11.6201 7.17638H12.5482V7.17641L11.6201 7.17638ZM11.6199 11.5173H10.6918V11.5173L11.6199 11.5173ZM12.4084 11.8442L13.0653 12.4998L13.064 12.5011L12.4084 11.8442ZM13.067 7.17637H13.9951V7.17642L13.067 7.17637ZM13.0668 10.6727H12.1387V10.6726L13.0668 10.6727ZM13.8554 11.0395L14.5111 11.6964L14.5105 11.697L13.8554 11.0395ZM14.514 7.17619H15.4421V7.1763L14.514 7.17619ZM14.5137 9.846H13.5856V9.84588L14.5137 9.846ZM15.3017 10.173L15.958 10.8293L15.9573 10.8299L15.3017 10.173ZM15.4367 9.846H14.5086V9.84597L15.4367 9.846ZM15.4368 4.43451H16.3649V4.43454L15.4368 4.43451ZM12.4589 1.1612V2.0893H11.2285L11.5665 0.906238L12.4589 1.1612ZM14.9752 11.7594C14.6335 11.7594 14.3284 11.6648 14.0752 11.529L14.9523 9.89317C14.9643 9.8996 14.9719 9.90205 14.9749 9.90287C14.9775 9.90357 14.9772 9.90321 14.9752 9.90321V11.7594ZM15.4418 10.7111V10.7131H13.5856V10.7111H15.4418ZM15.4418 10.7131C15.4418 11.2221 15.2421 11.7066 14.8807 12.067L13.5699 10.7528C13.5765 10.7461 13.5798 10.7405 13.5817 10.7358C13.5836 10.7312 13.5856 10.724 13.5856 10.7131H15.4418ZM14.8815 12.0661C14.5214 12.4263 14.0378 12.6264 13.5284 12.6264V10.7703C13.5391 10.7703 13.5461 10.7683 13.5509 10.7664C13.5556 10.7644 13.5618 10.7609 13.569 10.7536L14.8815 12.0661ZM13.5284 12.6264C13.1822 12.6264 12.8733 12.5296 12.6172 12.3901L13.5049 10.76C13.517 10.7665 13.5247 10.769 13.5277 10.7699C13.5303 10.7706 13.5301 10.7703 13.5284 10.7703V12.6264ZM13.9876 11.6292C13.9609 12.086 13.7756 12.5291 13.4351 12.8699L12.1219 11.558C12.1253 11.5546 12.1273 11.5515 12.129 11.5477C12.1308 11.5435 12.1337 11.535 12.1346 11.5209L13.9876 11.6292ZM13.4348 12.8702C13.0745 13.2304 12.5909 13.4305 12.0815 13.4305V11.5743C12.0923 11.5743 12.0994 11.5724 12.1041 11.5704C12.1089 11.5684 12.115 11.5649 12.1222 11.5577L13.4348 12.8702ZM12.0815 13.4305C11.0569 13.4305 10.2347 12.6263 10.1755 11.6299L12.0284 11.5198C12.0294 11.5356 12.0358 11.5495 12.0473 11.5604C12.0528 11.5657 12.0585 11.5691 12.0634 11.5711C12.0677 11.5729 12.0732 11.5743 12.0815 11.5743V13.4305ZM11.5433 12.3913C11.2435 12.5534 10.888 12.6468 10.5084 12.6224L10.6273 10.77C10.6274 10.77 10.6293 10.7702 10.6342 10.7691C10.6395 10.7679 10.6486 10.765 10.6607 10.7584L11.5433 12.3913ZM10.5071 12.6223C9.47663 12.5547 8.72123 11.6784 8.72123 10.6827H10.5774C10.5774 10.7141 10.5888 10.7383 10.6031 10.754C10.617 10.7694 10.6265 10.77 10.6286 10.7701L10.5071 12.6223ZM8.72123 10.6827V6.25109H10.5774V10.6827H8.72123ZM10.4531 6.71506L9.9485 7.5893L8.3409 6.66136L8.84553 5.78713L10.4531 6.71506ZM9.94934 7.58783C9.59072 8.21175 8.92318 8.59541 8.20535 8.59541V6.73923C8.26226 6.73923 8.31428 6.70767 8.34006 6.66283L9.94934 7.58783ZM8.20535 8.59541C7.85438 8.59541 7.5089 8.50338 7.20358 8.32843L8.12642 6.7179C8.15138 6.73221 8.17881 6.73923 8.20535 6.73923V8.59541ZM7.19952 8.32609C6.78283 8.08452 6.47954 7.6914 6.35444 7.22318L8.14772 6.74405C8.14688 6.74088 8.14456 6.73528 8.14009 6.72946C8.13566 6.72367 8.13155 6.72087 8.13049 6.72025L7.19952 8.32609ZM6.35472 7.22422C6.22913 6.75636 6.29488 6.2629 6.53713 5.84453L8.14346 6.77465C8.14478 6.77237 8.1471 6.76707 8.1481 6.75957C8.14909 6.75205 8.14826 6.74605 8.14744 6.74301L6.35472 7.22422ZM7.34029 5.3815C6.88503 5.50083 6.54427 5.83242 6.54172 5.8367C6.54087 5.83813 6.53961 5.84028 6.53921 5.84096C6.53898 5.84136 6.53858 5.84203 6.53845 5.84226C6.53836 5.84241 6.5382 5.8427 6.53815 5.84277C6.53802 5.84299 6.53806 5.84292 6.53841 5.84232C6.53904 5.84123 6.5401 5.8394 6.54164 5.83674C6.54469 5.83147 6.54927 5.82354 6.55532 5.81307C6.5674 5.79217 6.58516 5.76143 6.60783 5.72218C6.65316 5.64371 6.71804 5.53138 6.79622 5.396C6.95257 5.12527 7.16208 4.76244 7.37474 4.39413C7.80076 3.65627 8.23752 2.89962 8.28699 2.81336L9.89717 3.73681C9.84592 3.82616 9.40687 4.58677 8.98222 5.32225C8.76954 5.69062 8.56 6.05349 8.40361 6.32429C8.32542 6.45968 8.26051 6.57207 8.21513 6.65063C8.19245 6.6899 8.17462 6.72076 8.16245 6.74181C8.15638 6.75232 8.15167 6.76047 8.14845 6.76603C8.14686 6.76878 8.14555 6.77106 8.14458 6.77272C8.14414 6.77349 8.14358 6.77446 8.14304 6.77537C8.14285 6.77571 8.14225 6.77674 8.14154 6.77796C8.14108 6.77873 8.13978 6.78095 8.13891 6.78242C8.13634 6.78674 7.79556 7.11835 7.34029 7.23768V5.3815ZM8.24682 2.89183C8.25703 2.8693 8.2894 2.79665 8.31917 2.7297L10.0152 3.48396C9.98693 3.54755 9.95107 3.62807 9.93734 3.65834L8.24682 2.89183ZM8.31918 2.72969C8.33208 2.70069 8.34635 2.66363 8.36673 2.60614L10.1162 3.2264C10.091 3.29749 10.0577 3.38834 10.0152 3.48397L8.31918 2.72969ZM8.36665 2.60639C8.99523 0.831779 10.5774 -0.290485 12.4589 -0.290485V1.5657C11.3668 1.5657 10.4835 2.18964 10.1163 3.22615L8.36665 2.60639ZM12.4589 -0.290485C14.9714 -0.290485 16.8883 1.90045 16.8883 4.43438H15.0322C15.0322 2.78119 13.8076 1.5657 12.4589 1.5657V-0.290485ZM16.8883 4.43435L16.8885 9.84585L15.0323 9.8459L15.0322 4.43441L16.8883 4.43435ZM16.8885 9.84587C16.8885 10.3548 16.6888 10.8382 16.3291 11.1985L15.0154 9.88721C15.0227 9.87986 15.0263 9.87361 15.0283 9.86873C15.0304 9.86386 15.0323 9.85669 15.0323 9.84587H16.8885ZM16.3285 11.1991C15.9683 11.5594 15.4846 11.7594 14.9752 11.7594V9.90323C14.9861 9.90323 14.9932 9.90125 14.9979 9.89929C15.0027 9.89733 15.0088 9.89384 15.016 9.8866L16.3285 11.1991ZM14.4888 10.0409L14.4888 10.0409L15.4616 11.6217L15.4616 11.6217L14.4888 10.0409ZM12.4589 2.08924C11.5765 2.08924 10.9074 2.56129 10.6098 3.40128L8.86013 2.78144C9.4189 1.20419 10.7863 0.233058 12.4589 0.233058V2.08924ZM10.6091 3.40328C10.5798 3.48538 10.5417 3.58906 10.4936 3.69709L8.79787 2.94218C8.81636 2.90065 8.83537 2.85084 8.86084 2.77944L10.6091 3.40328ZM10.4934 3.69758C10.4509 3.79291 10.4153 3.87341 10.388 3.92793C10.3711 3.96178 10.3437 4.01393 10.304 4.0717C10.2638 4.13023 10.2241 4.17438 10.2208 4.17808L8.82303 2.95678C8.82521 2.95428 8.82449 2.95509 8.82339 2.95637C8.82197 2.95802 8.81837 2.96222 8.81364 2.96799C8.80873 2.97397 8.80256 2.98169 8.7956 2.99086C8.78858 3.00012 8.78144 3.00997 8.7743 3.02036C8.75976 3.04152 8.74856 3.06005 8.7406 3.07407C8.73317 3.08715 8.72862 3.09621 8.7276 3.09825C8.72655 3.10035 8.72721 3.09911 8.73036 3.09236C8.73342 3.08582 8.73774 3.0764 8.74395 3.06268C8.7501 3.04909 8.75748 3.03267 8.76655 3.01237C8.77561 2.99212 8.78596 2.9689 8.79809 2.94169L10.4934 3.69758ZM8.91531 4.26983L8.9117 4.26672L10.1249 2.86191L10.1285 2.86503L8.91531 4.26983ZM10.3384 3.99892C10.1931 4.27299 9.77843 4.99072 8.59729 7.03579L6.98993 6.10744C8.18766 4.03365 8.57393 3.36434 8.69827 3.12971L10.3384 3.99892ZM8.59691 7.03645C8.67117 6.90812 8.69186 6.75328 8.65367 6.60956L6.85975 7.08632C6.7717 6.755 6.81831 6.40402 6.99032 6.10678L8.59691 7.03645ZM8.65289 6.60667C8.6147 6.46481 8.52084 6.34075 8.39028 6.26539L7.46228 7.87294C7.16413 7.70083 6.94923 7.41868 6.86053 7.08922L8.65289 6.60667ZM8.38855 6.26439C8.2829 6.20371 8.18016 6.20411 8.10921 6.22321C8.03853 6.24224 7.94791 6.29378 7.88588 6.40187L9.49576 7.32583C9.09128 8.03059 8.16688 8.27767 7.46402 7.87394L8.38855 6.26439ZM7.88715 6.39966L8.88078 4.67936L10.4881 5.60774L9.49448 7.32804L7.88715 6.39966ZM8.88135 4.67838C9.14942 4.21557 9.69658 3.98395 10.2215 4.12601L9.73651 5.91773C10.0311 5.99747 10.3382 5.86654 10.4876 5.60872L8.88135 4.67838ZM10.2192 4.12539C10.7398 4.26488 11.1011 4.73672 11.1011 5.27474H9.24489C9.24489 5.57596 9.44707 5.84019 9.73881 5.91835L10.2192 4.12539ZM11.1011 5.27474V10.6829H9.24489V5.27474H11.1011ZM11.1011 10.6829C11.1011 10.5771 11.0619 10.481 10.9976 10.4074C10.9334 10.3339 10.8201 10.2581 10.6631 10.2478L10.5412 12.0999C9.75994 12.0485 9.24489 11.368 9.24489 10.6829H11.1011ZM10.6512 10.2471C10.5415 10.2413 10.4076 10.2814 10.3058 10.383L11.6172 11.6967C11.3241 11.9892 10.9357 12.1209 10.5532 12.1007L10.6512 10.2471ZM10.3052 10.3836C10.2171 10.4717 10.1682 10.5924 10.1682 10.7134H12.0244C12.0244 11.082 11.8796 11.4342 11.6177 11.6961L10.3052 10.3836ZM10.1682 10.7134V7.17638H12.0244V10.7134H10.1682ZM10.1682 7.17638C10.1682 6.51916 10.701 5.98639 11.3582 5.98639V7.84257C11.7261 7.84257 12.0244 7.54431 12.0244 7.17638H10.1682ZM11.3582 5.98639C12.015 5.98639 12.5482 6.51863 12.5482 7.17638H10.692C10.692 7.54451 10.9906 7.84257 11.3582 7.84257V5.98639ZM12.5482 7.17641L12.548 11.5174L10.6918 11.5173L10.692 7.17634L12.5482 7.17641ZM12.548 11.5173C12.548 11.2593 12.3396 11.0509 12.0815 11.0509V12.9071C11.3145 12.9071 10.6918 12.2844 10.6918 11.5173H12.548ZM12.0815 11.0509C11.9607 11.0509 11.8406 11.0995 11.7528 11.1873L13.064 12.5011C12.8019 12.7626 12.4496 12.9071 12.0815 12.9071V11.0509ZM11.7515 11.1885C11.6638 11.2764 11.6151 11.3965 11.6151 11.5173H13.4713C13.4713 11.8854 13.3268 12.2377 13.0653 12.4998L11.7515 11.1885ZM11.6151 11.5173V7.17637H13.4713V11.5173H11.6151ZM11.6151 7.17637C11.6151 6.51955 12.1473 5.98638 12.8051 5.98638V7.84257C13.1732 7.84257 13.4713 7.54392 13.4713 7.17637H11.6151ZM12.8051 5.98638C13.4619 5.98638 13.9951 6.51862 13.9951 7.17637H12.1389C12.1389 7.54452 12.4375 7.84257 12.8051 7.84257V5.98638ZM13.9951 7.17642L13.9949 10.6727L12.1387 10.6726L12.1389 7.17633L13.9951 7.17642ZM13.9949 10.6727V10.7134H12.1387V10.6727H13.9949ZM13.9949 10.7134C13.9949 10.4547 13.786 10.2467 13.5286 10.2467V12.1029C12.7618 12.1029 12.1387 11.4807 12.1387 10.7134H13.9949ZM13.5286 10.2467C13.4053 10.2467 13.2859 10.2969 13.2004 10.382L14.5105 11.697C14.2499 11.9567 13.8989 12.1029 13.5286 12.1029V10.2467ZM13.1998 10.3826C13.111 10.4713 13.0622 10.5923 13.0622 10.7132H14.9183C14.9183 11.0816 14.7737 11.4343 14.5111 11.6964L13.1998 10.3826ZM13.0622 10.7132V7.17619H14.9183V10.7132H13.0622ZM13.0622 7.17619C13.0622 6.51935 13.5944 5.9862 14.2521 5.9862V7.84239C14.6203 7.84239 14.9183 7.54375 14.9183 7.17619H13.0622ZM14.2521 5.9862C14.909 5.9862 15.4421 6.51844 15.4421 7.17619H13.5859C13.5859 7.54433 13.8846 7.84239 14.2521 7.84239V5.9862ZM15.4421 7.1763L15.4418 9.84611L13.5856 9.84588L13.5859 7.17607L15.4421 7.1763ZM15.4418 9.846C15.4418 9.58854 15.2338 9.37971 14.9752 9.37971V11.2359C14.2078 11.2359 13.5856 10.6128 13.5856 9.846H15.4418ZM14.9752 9.37971C14.8534 9.37971 14.7333 9.429 14.646 9.51612L15.9573 10.8299C15.6962 11.0905 15.3446 11.2359 14.9752 11.2359V9.37971ZM14.6454 9.51674C14.5571 9.60512 14.5086 9.72573 14.5086 9.846H16.3647C16.3647 10.2136 16.2208 10.5664 15.9579 10.8293L14.6454 9.51674ZM14.5086 9.84597L14.5087 4.43448L16.3649 4.43454L16.3647 9.84602L14.5086 9.84597ZM14.5087 4.43451C14.5087 3.05777 13.5077 2.0893 12.4589 2.0893V0.233111C14.6942 0.233111 16.3649 2.20179 16.3649 4.43451H14.5087ZM11.5665 0.906238L11.5665 0.906184L13.3513 1.41612L13.3512 1.41617L11.5665 0.906238Z" fill="#4CAF4F" mask="url(#path-1-inside-1_211_2339)"/>
<path d="M3.59497 12.6193L3.54321 12.592C3.53094 12.6141 3.49649 12.676 3.44556 12.7678C3.46365 12.7768 3.48197 12.7843 3.50024 12.7912C3.53139 12.7351 3.56262 12.6776 3.59497 12.6193Z" fill="#4CAF4F" stroke="#4CAF4F" stroke-width="0.928093"/>
<mask id="path-4-inside-2_211_2339" fill="white">
<path d="M22.8452 19.8893C22.3619 20.6953 21.5671 21.247 20.6069 21.4431C19.6552 21.6371 18.6544 21.4582 17.7882 20.9388L13.1475 18.1549C12.9217 18.0195 12.7619 17.8043 12.698 17.5488C12.6345 17.2938 12.6742 17.0289 12.8095 16.8033C12.8939 16.6622 13.0123 16.5511 13.1496 16.4689L13.1483 16.4681C12.9225 16.3326 12.7627 16.1175 12.6991 15.8623C12.6352 15.6071 12.6749 15.3421 12.8103 15.1161C12.8976 14.971 13.0171 14.8575 13.1535 14.777C12.9554 14.6407 12.8128 14.4428 12.7541 14.2079C12.6901 13.9526 12.7298 13.6877 12.8652 13.4621C13.0005 13.2363 13.2159 13.0767 13.471 13.0129C13.5507 12.9929 13.6316 12.9831 13.7116 12.9831C13.8687 12.9832 14.0229 13.0231 14.1646 13.0972C14.1733 12.9137 14.2279 12.7335 14.3351 12.5788C14.6292 12.1546 15.2182 12.0372 15.6771 12.3125L19.4773 14.592L18.9875 13.7097C18.7995 13.3728 18.8064 12.9573 19.0057 12.625C19.1027 12.4633 19.2415 12.329 19.4073 12.236C19.5435 12.1606 19.6911 12.1249 19.8367 12.1249C20.1495 12.125 20.4532 12.29 20.6149 12.5821C21.1784 13.5974 22.2417 15.5121 22.3165 15.6458C22.3324 15.6689 22.3804 15.7378 22.4216 15.7964C22.4608 15.8519 22.5031 15.9051 22.5469 15.9579C23.4957 17.1081 23.6102 18.6144 22.8452 19.8893L22.8452 19.8893ZM22.1428 16.2916C22.0907 16.2285 22.0395 16.1641 21.993 16.0976C21.8513 15.8966 21.8477 15.8913 21.837 15.8387C21.6714 15.5647 21.2673 14.8372 20.1566 12.8361C20.0592 12.6605 19.8378 12.5964 19.6615 12.6938C19.5747 12.7423 19.505 12.8101 19.4542 12.8948C19.3512 13.0665 19.3473 13.281 19.4445 13.4552L20.4085 15.1921C20.466 15.2957 20.4468 15.4249 20.3617 15.5073C20.2768 15.5897 20.1469 15.6042 20.0449 15.5435L15.4076 12.7615C15.189 12.6305 14.9008 12.6818 14.7657 12.877C14.688 12.9891 14.6632 13.123 14.6957 13.2537C14.7255 13.373 14.8005 13.4737 14.9066 13.5374C14.9069 13.5375 14.9071 13.5379 14.9074 13.538L17.9395 15.357C18.0634 15.4315 18.1036 15.5922 18.0292 15.7163C17.9547 15.8401 17.7942 15.8806 17.6699 15.806L13.9474 13.573C13.8418 13.5097 13.7175 13.491 13.5981 13.521C13.4784 13.5508 13.3777 13.6256 13.3142 13.7317C13.2506 13.8375 13.2322 13.9616 13.2617 14.081C13.2916 14.2004 13.3665 14.3012 13.4725 14.3649L14.1968 14.7993L17.1948 16.598C17.3187 16.6724 17.3589 16.8332 17.2845 16.9573C17.21 17.0811 17.0495 17.1215 16.9252 17.047L13.8925 15.2275C13.6743 15.0963 13.3903 15.1675 13.2591 15.3859C13.1955 15.4918 13.1771 15.616 13.2066 15.7354C13.2365 15.8548 13.3114 15.9555 13.4175 16.0192L14.1611 16.4653L16.4502 17.8387C16.5742 17.9132 16.6144 18.0739 16.5399 18.1981C16.4655 18.3219 16.3049 18.3625 16.1806 18.2878L13.8915 16.9143C13.7859 16.851 13.662 16.8323 13.542 16.8623C13.4226 16.8922 13.3216 16.967 13.2581 17.0727C13.1947 17.1787 13.1761 17.303 13.2057 17.4222C13.2355 17.5416 13.3104 17.6423 13.4165 17.7061L18.0572 20.49C18.8103 20.9418 19.6788 21.0982 20.5017 20.9303C21.3161 20.764 21.9888 20.2988 22.3958 19.6202C23.0536 18.5243 22.959 17.28 22.1431 16.2916L22.1428 16.2916Z"/>
</mask>
<path d="M22.8452 19.8893C22.3619 20.6953 21.5671 21.247 20.6069 21.4431C19.6552 21.6371 18.6544 21.4582 17.7882 20.9388L13.1475 18.1549C12.9217 18.0195 12.7619 17.8043 12.698 17.5488C12.6345 17.2938 12.6742 17.0289 12.8095 16.8033C12.8939 16.6622 13.0123 16.5511 13.1496 16.4689L13.1483 16.4681C12.9225 16.3326 12.7627 16.1175 12.6991 15.8623C12.6352 15.6071 12.6749 15.3421 12.8103 15.1161C12.8976 14.971 13.0171 14.8575 13.1535 14.777C12.9554 14.6407 12.8128 14.4428 12.7541 14.2079C12.6901 13.9526 12.7298 13.6877 12.8652 13.4621C13.0005 13.2363 13.2159 13.0767 13.471 13.0129C13.5507 12.9929 13.6316 12.9831 13.7116 12.9831C13.8687 12.9832 14.0229 13.0231 14.1646 13.0972C14.1733 12.9137 14.2279 12.7335 14.3351 12.5788C14.6292 12.1546 15.2182 12.0372 15.6771 12.3125L19.4773 14.592L18.9875 13.7097C18.7995 13.3728 18.8064 12.9573 19.0057 12.625C19.1027 12.4633 19.2415 12.329 19.4073 12.236C19.5435 12.1606 19.6911 12.1249 19.8367 12.1249C20.1495 12.125 20.4532 12.29 20.6149 12.5821C21.1784 13.5974 22.2417 15.5121 22.3165 15.6458C22.3324 15.6689 22.3804 15.7378 22.4216 15.7964C22.4608 15.8519 22.5031 15.9051 22.5469 15.9579C23.4957 17.1081 23.6102 18.6144 22.8452 19.8893L22.8452 19.8893ZM22.1428 16.2916C22.0907 16.2285 22.0395 16.1641 21.993 16.0976C21.8513 15.8966 21.8477 15.8913 21.837 15.8387C21.6714 15.5647 21.2673 14.8372 20.1566 12.8361C20.0592 12.6605 19.8378 12.5964 19.6615 12.6938C19.5747 12.7423 19.505 12.8101 19.4542 12.8948C19.3512 13.0665 19.3473 13.281 19.4445 13.4552L20.4085 15.1921C20.466 15.2957 20.4468 15.4249 20.3617 15.5073C20.2768 15.5897 20.1469 15.6042 20.0449 15.5435L15.4076 12.7615C15.189 12.6305 14.9008 12.6818 14.7657 12.877C14.688 12.9891 14.6632 13.123 14.6957 13.2537C14.7255 13.373 14.8005 13.4737 14.9066 13.5374C14.9069 13.5375 14.9071 13.5379 14.9074 13.538L17.9395 15.357C18.0634 15.4315 18.1036 15.5922 18.0292 15.7163C17.9547 15.8401 17.7942 15.8806 17.6699 15.806L13.9474 13.573C13.8418 13.5097 13.7175 13.491 13.5981 13.521C13.4784 13.5508 13.3777 13.6256 13.3142 13.7317C13.2506 13.8375 13.2322 13.9616 13.2617 14.081C13.2916 14.2004 13.3665 14.3012 13.4725 14.3649L14.1968 14.7993L17.1948 16.598C17.3187 16.6724 17.3589 16.8332 17.2845 16.9573C17.21 17.0811 17.0495 17.1215 16.9252 17.047L13.8925 15.2275C13.6743 15.0963 13.3903 15.1675 13.2591 15.3859C13.1955 15.4918 13.1771 15.616 13.2066 15.7354C13.2365 15.8548 13.3114 15.9555 13.4175 16.0192L14.1611 16.4653L16.4502 17.8387C16.5742 17.9132 16.6144 18.0739 16.5399 18.1981C16.4655 18.3219 16.3049 18.3625 16.1806 18.2878L13.8915 16.9143C13.7859 16.851 13.662 16.8323 13.542 16.8623C13.4226 16.8922 13.3216 16.967 13.2581 17.0727C13.1947 17.1787 13.1761 17.303 13.2057 17.4222C13.2355 17.5416 13.3104 17.6423 13.4165 17.7061L18.0572 20.49C18.8103 20.9418 19.6788 21.0982 20.5017 20.9303C21.3161 20.764 21.9888 20.2988 22.3958 19.6202C23.0536 18.5243 22.959 17.28 22.1431 16.2916L22.1428 16.2916Z" fill="#4CAF4F"/>
<path d="M22.8452 19.8893L22.5457 19.0108L24.9444 18.1931L23.6412 20.3666L22.8452 19.8893ZM20.6069 21.4431L20.7926 22.3524L20.7923 22.3525L20.6069 21.4431ZM17.7882 20.9388L17.3109 21.7348L17.3107 21.7347L17.7882 20.9388ZM13.1475 18.1549L13.6249 17.359L13.6249 17.3591L13.1475 18.1549ZM12.698 17.5488L11.7976 17.7741L11.7973 17.7729L12.698 17.5488ZM12.8095 16.8033L13.6057 17.2801L13.6055 17.2805L12.8095 16.8033ZM13.1496 16.4689L13.6415 15.6819L14.9281 16.486L13.6262 17.2652L13.1496 16.4689ZM13.1483 16.4681L13.6257 15.6722L13.633 15.6766L13.6402 15.6811L13.1483 16.4681ZM12.6991 15.8623L13.5994 15.6366L13.5997 15.6378L12.6991 15.8623ZM12.8103 15.1161L12.0143 14.6389L12.0149 14.638L12.8103 15.1161ZM13.1535 14.777L13.6795 14.0123L14.8782 14.8369L13.6252 15.5763L13.1535 14.777ZM12.7541 14.2079L13.6543 13.9824L13.6544 13.9828L12.7541 14.2079ZM12.8652 13.4621L13.6614 13.9391L13.661 13.9397L12.8652 13.4621ZM13.471 13.0129L13.697 13.9131L13.6961 13.9133L13.471 13.0129ZM13.7116 12.9831V12.055L13.7126 12.055L13.7116 12.9831ZM14.1646 13.0972L15.0916 13.1411L15.0228 14.5937L13.7343 13.9195L14.1646 13.0972ZM14.3351 12.5788L15.0979 13.1075L15.0978 13.1077L14.3351 12.5788ZM15.6771 12.3125L15.1997 13.1084L15.1996 13.1083L15.6771 12.3125ZM19.4773 14.592L20.2887 14.1415L21.9697 17.1693L18.9999 15.3879L19.4773 14.592ZM18.9875 13.7097L19.7979 13.2575L19.7989 13.2592L18.9875 13.7097ZM19.0057 12.625L18.2097 12.1477L18.21 12.1473L19.0057 12.625ZM19.4073 12.236L18.9533 11.4265L18.9578 11.4241L19.4073 12.236ZM19.8367 12.1249V11.1968L19.8372 11.1968L19.8367 12.1249ZM20.6149 12.5821L19.8034 13.0325L19.8029 13.0315L20.6149 12.5821ZM22.3165 15.6458L21.5518 16.1718L21.5275 16.1364L21.5065 16.0989L22.3165 15.6458ZM22.4216 15.7964L21.663 16.3311L21.6624 16.3302L22.4216 15.7964ZM22.5469 15.9579L23.2613 15.3655L23.2628 15.3673L22.5469 15.9579ZM22.8452 19.8893L23.1446 20.7678L20.7448 21.5859L22.0494 19.4118L22.8452 19.8893ZM22.1428 16.2916L22.2348 17.2152L21.7424 17.2642L21.4273 16.8827L22.1428 16.2916ZM21.993 16.0976L22.7516 15.563L22.7528 15.5648L21.993 16.0976ZM21.837 15.8387L22.6313 15.3586L22.7146 15.4965L22.7466 15.6545L21.837 15.8387ZM20.1566 12.8361L19.3451 13.2865L19.345 13.2863L20.1566 12.8361ZM19.6615 12.6938L19.2083 11.8838L19.2126 11.8815L19.6615 12.6938ZM19.4542 12.8948L20.2502 13.3721L20.2501 13.3722L19.4542 12.8948ZM19.4445 13.4552L20.2549 13.0028L20.256 13.0048L19.4445 13.4552ZM20.4085 15.1921L19.5971 15.6427L19.597 15.6424L20.4085 15.1921ZM20.3617 15.5073L19.7152 14.8414L19.7165 14.8401L20.3617 15.5073ZM20.0449 15.5435L19.5704 16.3411L19.5675 16.3394L20.0449 15.5435ZM15.4076 12.7615L15.8847 11.9655L15.885 11.9656L15.4076 12.7615ZM14.7657 12.877L15.5287 13.4053L15.5285 13.4056L14.7657 12.877ZM14.6957 13.2537L13.7953 13.4787L13.795 13.4774L14.6957 13.2537ZM14.9066 13.5374L14.4914 14.3674L14.4597 14.3516L14.4292 14.3333L14.9066 13.5374ZM14.9074 13.538L15.3225 12.7079L15.3543 12.7239L15.3848 12.7422L14.9074 13.538ZM17.9395 15.357L18.4169 14.5612L18.4173 14.5614L17.9395 15.357ZM18.0292 15.7163L18.8251 16.1937L18.8245 16.1946L18.0292 15.7163ZM17.6699 15.806L18.1473 15.0102L18.1475 15.0103L17.6699 15.806ZM13.9474 13.573L14.4245 12.7769L14.4248 12.7771L13.9474 13.573ZM13.5981 13.521L13.8243 14.4211L13.8226 14.4215L13.5981 13.521ZM13.3142 13.7317L14.1107 14.2081L14.1095 14.2101L13.3142 13.7317ZM13.2617 14.081L12.3613 14.3061L12.3608 14.3038L13.2617 14.081ZM13.4725 14.3649L12.9951 15.1608L12.9946 15.1605L13.4725 14.3649ZM14.1968 14.7993L14.6742 14.0034L14.6743 14.0035L14.1968 14.7993ZM17.1948 16.598L17.6722 15.8021L17.6726 15.8023L17.1948 16.598ZM17.2845 16.9573L18.0804 17.4347L18.0798 17.4356L17.2845 16.9573ZM16.9252 17.047L16.4483 17.8432L16.4477 17.8428L16.9252 17.047ZM13.8925 15.2275L13.415 16.0233L13.4141 16.0228L13.8925 15.2275ZM13.2591 15.3859L14.0547 15.8638L14.0547 15.8638L13.2591 15.3859ZM13.2066 15.7354L12.3063 15.9605L12.3057 15.9581L13.2066 15.7354ZM13.4175 16.0192L12.9401 16.8151L12.9393 16.8146L13.4175 16.0192ZM14.1611 16.4653L14.6385 15.6694L14.6386 15.6695L14.1611 16.4653ZM16.4502 17.8387L16.9277 17.0429L16.928 17.0431L16.4502 17.8387ZM16.5399 18.1981L17.3358 18.6754L17.3353 18.6763L16.5399 18.1981ZM16.1806 18.2878L16.6581 17.4919L16.6591 17.4925L16.1806 18.2878ZM13.8915 16.9143L14.3686 16.1183L14.369 16.1185L13.8915 16.9143ZM13.542 16.8623L13.3169 15.9619L13.3169 15.9619L13.542 16.8623ZM13.2581 17.0727L12.462 16.5958L12.4623 16.5952L13.2581 17.0727ZM13.2057 17.4222L12.3053 17.6473L12.3048 17.6452L13.2057 17.4222ZM13.4165 17.7061L12.9391 18.5019L12.9383 18.5015L13.4165 17.7061ZM18.0572 20.49L18.5347 19.6941L18.5347 19.6941L18.0572 20.49ZM20.5017 20.9303L20.6874 21.8396L20.6873 21.8396L20.5017 20.9303ZM22.3958 19.6202L21.5999 19.1428L21.6001 19.1425L22.3958 19.6202ZM22.1431 16.2916L22.0512 15.3681L22.5438 15.319L22.8589 15.7008L22.1431 16.2916ZM23.6412 20.3666C23.0177 21.4064 21.9954 22.1068 20.7926 22.3524L20.4211 20.5338C21.1387 20.3872 21.7062 19.9842 22.0492 19.412L23.6412 20.3666ZM20.7923 22.3525C19.6037 22.5948 18.3675 22.3683 17.3109 21.7348L18.2654 20.1429C18.9413 20.5481 19.7068 20.6794 20.4215 20.5337L20.7923 22.3525ZM17.3107 21.7347L12.67 18.9508L13.6249 17.3591L18.2656 20.143L17.3107 21.7347ZM12.67 18.9508C12.2336 18.689 11.9215 18.2689 11.7976 17.7741L13.5983 17.3234C13.6008 17.3335 13.6043 17.3398 13.6074 17.3439C13.6105 17.3482 13.6156 17.3535 13.6249 17.359L12.67 18.9508ZM11.7973 17.7729C11.6744 17.2789 11.7522 16.7619 12.0135 16.326L13.6055 17.2805C13.5999 17.2898 13.5979 17.297 13.5971 17.3024C13.5963 17.3077 13.5961 17.3149 13.5986 17.3247L11.7973 17.7729ZM12.0132 16.3265C12.1853 16.0391 12.4205 15.8237 12.673 15.6726L13.6262 17.2652C13.6149 17.272 13.6089 17.2773 13.6065 17.2796C13.6043 17.2817 13.6047 17.2818 13.6057 17.2801L12.0132 16.3265ZM12.6577 17.2559L12.6564 17.2551L13.6402 15.6811L13.6415 15.6819L12.6577 17.2559ZM12.6709 17.264C12.2346 17.0023 11.9221 16.582 11.7986 16.0868L13.5997 15.6378C13.602 15.6472 13.6053 15.6531 13.6083 15.6572C13.6114 15.6613 13.6164 15.6666 13.6257 15.6722L12.6709 17.264ZM11.7989 16.0879C11.6748 15.5928 11.7528 15.075 12.0143 14.6389L13.6063 15.5933C13.6006 15.6028 13.5986 15.6101 13.5979 15.6152C13.5971 15.6203 13.597 15.6271 13.5994 15.6366L11.7989 16.0879ZM12.0149 14.638C12.1862 14.3529 12.4203 14.132 12.6819 13.9777L13.6252 15.5763C13.6192 15.5798 13.6151 15.5832 13.6124 15.5858C13.6099 15.5883 13.6077 15.591 13.6057 15.5943L12.0149 14.638ZM12.6275 15.5416C12.2527 15.2837 11.97 14.8984 11.8537 14.433L13.6544 13.9828C13.6555 13.9872 13.657 13.9903 13.6594 13.9937C13.662 13.9974 13.6678 14.0043 13.6795 14.0123L12.6275 15.5416ZM11.8538 14.4334C11.7298 13.9384 11.8077 13.4206 12.0695 12.9844L13.661 13.9397C13.6555 13.9489 13.6535 13.9559 13.6528 13.9609C13.6521 13.9658 13.6519 13.9727 13.6543 13.9824L11.8538 14.4334ZM12.0691 12.9851C12.331 12.5479 12.7518 12.236 13.246 12.1125L13.6961 13.9133C13.6862 13.9158 13.68 13.9192 13.6759 13.9223C13.6718 13.9253 13.6667 13.9303 13.6614 13.9391L12.0691 12.9851ZM13.2451 12.1127C13.3988 12.0741 13.5556 12.055 13.7116 12.055V13.9111C13.7076 13.9111 13.7027 13.9116 13.697 13.9131L13.2451 12.1127ZM13.7126 12.055C14.0279 12.0553 14.3285 12.1355 14.5948 12.2749L13.7343 13.9195C13.7255 13.9149 13.7192 13.9129 13.7157 13.912C13.7123 13.9111 13.7108 13.9111 13.7107 13.9111L13.7126 12.055ZM13.2375 13.0533C13.2535 12.7158 13.3553 12.3631 13.5725 12.0499L15.0978 13.1077C15.1005 13.1038 15.093 13.1116 15.0916 13.1411L13.2375 13.0533ZM13.5723 12.0501C14.1602 11.202 15.2999 11.0038 16.1546 11.5167L15.1996 13.1083C15.1725 13.0921 15.146 13.0895 15.1252 13.0936C15.1049 13.0976 15.0993 13.1055 15.0979 13.1075L13.5723 12.0501ZM16.1545 11.5166L19.9547 13.7961L18.9999 15.3879L15.1997 13.1084L16.1545 11.5166ZM18.6659 15.0425L18.176 14.1602L19.7989 13.2592L20.2887 14.1415L18.6659 15.0425ZM18.177 14.1619C17.8264 13.5336 17.8404 12.7635 18.2097 12.1477L19.8016 13.1024C19.7724 13.151 19.7726 13.2121 19.7979 13.2575L18.177 14.1619ZM18.21 12.1473C18.391 11.8458 18.6481 11.5977 18.9533 11.4266L19.8612 13.0455C19.8349 13.0603 19.8145 13.0808 19.8013 13.1028L18.21 12.1473ZM18.9578 11.4241C19.2355 11.2703 19.5384 11.1968 19.8367 11.1968V13.053C19.8399 13.053 19.8436 13.0526 19.8475 13.0516C19.8515 13.0505 19.8548 13.0491 19.8568 13.048L18.9578 11.4241ZM19.8372 11.1968C20.4715 11.1971 21.0943 11.5317 21.4269 12.1326L19.8029 13.0315C19.8043 13.0342 19.8068 13.0377 19.8102 13.0411C19.8135 13.0444 19.8168 13.0468 19.8198 13.0485C19.825 13.0516 19.8303 13.0529 19.8363 13.053L19.8372 11.1968ZM21.4264 12.1317C21.9905 13.1482 23.0527 15.0608 23.1264 15.1927L21.5065 16.0989C21.4307 15.9634 20.3662 14.0465 19.8034 13.0325L21.4264 12.1317ZM23.0811 15.1198C23.0942 15.1388 23.14 15.2046 23.1808 15.2625L21.6624 16.3302C21.6208 16.2711 21.5705 16.199 21.5518 16.1718L23.0811 15.1198ZM23.1801 15.2616C23.1993 15.2888 23.2243 15.3209 23.2613 15.3655L21.8324 16.5503C21.7818 16.4893 21.7222 16.4151 21.663 16.3311L23.1801 15.2616ZM23.2628 15.3673C24.4607 16.8194 24.6091 18.7534 23.641 20.3668L22.0494 19.4118C22.6113 18.4753 22.5308 17.3968 21.8309 16.5485L23.2628 15.3673ZM22.5457 19.0109L22.5457 19.0108L23.1447 20.7677L23.1446 20.7678L22.5457 19.0109ZM21.4273 16.8827C21.3686 16.8117 21.2999 16.7258 21.2331 16.6305L22.7528 15.5648C22.7791 15.6023 22.8128 15.6453 22.8584 15.7006L21.4273 16.8827ZM21.2343 16.6323C21.1759 16.5494 21.1131 16.4614 21.0714 16.3923C21.0435 16.3462 21.0062 16.2788 20.9747 16.1929C20.944 16.1093 20.9304 16.0377 20.9274 16.0229L22.7466 15.6545C22.749 15.666 22.7398 15.6148 22.7172 15.5533C22.6938 15.4895 22.6682 15.4458 22.6603 15.4327C22.6565 15.4264 22.655 15.4244 22.658 15.4288C22.6608 15.433 22.6657 15.4403 22.674 15.4524C22.6913 15.4775 22.7151 15.5113 22.7516 15.563L21.2343 16.6323ZM21.0427 16.3188C20.8654 16.0254 20.4481 15.2736 19.3451 13.2865L20.9681 12.3857C22.0865 14.4008 22.4773 15.1039 22.6313 15.3586L21.0427 16.3188ZM19.345 13.2863C19.4952 13.5572 19.8373 13.657 20.1103 13.5061L19.2126 11.8815C19.8382 11.5358 20.6231 11.7638 20.9682 12.386L19.345 13.2863ZM20.1147 13.5037C20.1692 13.4732 20.2177 13.4262 20.2502 13.3721L18.6582 12.4176C18.7924 12.1939 18.9803 12.0115 19.2083 11.8839L20.1147 13.5037ZM20.2501 13.3722C20.3166 13.2614 20.321 13.1213 20.2549 13.0028L18.6342 13.9077C18.3735 13.4408 18.3859 12.8717 18.6583 12.4175L20.2501 13.3722ZM20.256 13.0048L21.22 14.7417L19.597 15.6424L18.633 13.9056L20.256 13.0048ZM21.2198 14.7415C21.4811 15.2119 21.3943 15.7997 21.007 16.1744L19.7165 14.8401C19.4994 15.0502 19.4509 15.3795 19.5971 15.6427L21.2198 14.7415ZM21.0083 16.1731C20.6178 16.5522 20.0275 16.613 19.5704 16.3411L20.5194 14.7459C20.2663 14.5953 19.9357 14.6273 19.7152 14.8414L21.0083 16.1731ZM19.5675 16.3394L14.9301 13.5574L15.885 11.9656L20.5223 14.7476L19.5675 16.3394ZM14.9304 13.5576C15.0209 13.6118 15.1232 13.6276 15.2192 13.6104C15.3151 13.5932 15.4388 13.5351 15.5287 13.4053L14.0027 12.3486C14.4494 11.7035 15.2988 11.6143 15.8847 11.9655L14.9304 13.5576ZM15.5285 13.4056C15.601 13.3011 15.629 13.1612 15.5964 13.0299L13.795 13.4774C13.6974 13.0847 13.775 12.6772 14.0029 12.3483L15.5285 13.4056ZM15.5961 13.0286C15.5657 12.907 15.4871 12.8033 15.3839 12.7414L14.4292 14.3333C14.1138 14.1442 13.8854 13.8391 13.7953 13.4787L15.5961 13.0286ZM15.3217 12.7073C15.4055 12.7492 15.4672 12.796 15.5063 12.829C15.5255 12.8453 15.5403 12.8592 15.5493 12.8678C15.5539 12.8722 15.5575 12.8758 15.5597 12.8779C15.5609 12.8791 15.5618 12.88 15.5623 12.8805C15.5626 12.8808 15.5628 12.881 15.563 12.8812C15.563 12.8812 15.5631 12.8813 15.5631 12.8813C15.5632 12.8814 15.5632 12.8814 15.5632 12.8814C15.5632 12.8814 15.5632 12.8814 15.5632 12.8814C15.5632 12.8814 15.5632 12.8814 15.5632 12.8814C15.5635 12.8817 15.5618 12.88 15.5598 12.878C15.5576 12.8759 15.554 12.8723 15.5495 12.868C15.5406 12.8594 15.5258 12.8456 15.5066 12.8294C15.4677 12.7964 15.4062 12.7498 15.3225 12.7079L14.4922 14.3681C14.4084 14.3262 14.3467 14.2794 14.3077 14.2464C14.2885 14.2301 14.2736 14.2162 14.2646 14.2076C14.2601 14.2032 14.2564 14.1996 14.2542 14.1974C14.2531 14.1963 14.2522 14.1954 14.2516 14.1949C14.2513 14.1946 14.2511 14.1943 14.251 14.1942C14.2509 14.1941 14.2508 14.1941 14.2508 14.194C14.2508 14.194 14.2508 14.194 14.2508 14.194C14.2508 14.194 14.2508 14.194 14.2508 14.194C14.2508 14.194 14.2507 14.194 14.2507 14.194C14.2504 14.1937 14.2521 14.1954 14.2541 14.1973C14.2563 14.1995 14.2599 14.2031 14.2645 14.2074C14.2734 14.216 14.2882 14.2298 14.3073 14.246C14.3462 14.2789 14.4077 14.3256 14.4914 14.3674L15.3217 12.7073ZM15.3848 12.7422L18.4169 14.5612L17.462 16.1529L14.4299 14.3339L15.3848 12.7422ZM18.4173 14.5614C18.9807 14.8997 19.163 15.6303 18.8251 16.1937L17.2332 15.239C17.0443 15.5541 17.1462 15.9632 17.4617 16.1527L18.4173 14.5614ZM18.8245 16.1946C18.487 16.7559 17.7573 16.941 17.1922 16.6018L18.1475 15.0103C17.831 14.8203 17.4224 14.9244 17.2338 15.2381L18.8245 16.1946ZM17.1924 16.6019L13.4699 14.3688L14.4248 12.7771L18.1473 15.0102L17.1924 16.6019ZM13.4702 14.369C13.5745 14.4315 13.7031 14.4515 13.8243 14.4211L13.3718 12.6209C13.7319 12.5304 14.109 12.5878 14.4245 12.7769L13.4702 14.369ZM13.8226 14.4215C13.9431 14.3915 14.0479 14.3131 14.1107 14.2081L12.5177 13.2553C12.7075 12.9381 13.0136 12.7102 13.3736 12.6204L13.8226 14.4215ZM14.1095 14.2101C14.1732 14.1042 14.1918 13.976 14.1627 13.8582L12.3608 14.3038C12.2726 13.9473 12.3279 13.5708 12.5189 13.2533L14.1095 14.2101ZM14.1621 13.8559C14.1319 13.735 14.0538 13.6314 13.9503 13.5693L12.9946 15.1605C12.6792 14.9711 12.4513 14.6658 12.3613 14.3061L14.1621 13.8559ZM13.9498 13.569L14.6742 14.0034L13.7195 15.5952L12.9951 15.1608L13.9498 13.569ZM14.6743 14.0035L17.6722 15.8021L16.7173 17.3938L13.7193 15.5951L14.6743 14.0035ZM17.6726 15.8023C18.236 16.1407 18.4183 16.8713 18.0804 17.4347L16.4885 16.4799C16.2996 16.795 16.4015 17.2042 16.717 17.3936L17.6726 15.8023ZM18.0798 17.4356C17.7418 17.9977 17.0121 18.1809 16.4483 17.8432L17.4021 16.2508C17.0868 16.062 16.6782 16.1645 16.4891 16.479L18.0798 17.4356ZM16.4477 17.8428L13.415 16.0233L14.3699 14.4316L17.4026 16.2512L16.4477 17.8428ZM13.4141 16.0228C13.6369 16.1569 13.9228 16.0834 14.0547 15.8638L12.4635 14.9081C12.8578 14.2515 13.7117 14.0357 14.3708 14.4322L13.4141 16.0228ZM14.0547 15.8638C14.118 15.7584 14.1368 15.6305 14.1076 15.5126L12.3057 15.9581C12.2175 15.6015 12.273 15.2253 12.4635 14.908L14.0547 15.8638ZM14.107 15.5103C14.0766 15.3886 13.9981 15.2854 13.8958 15.2238L12.9393 16.8146C12.6248 16.6255 12.3964 16.3209 12.3063 15.9605L14.107 15.5103ZM13.895 15.2234L14.6385 15.6694L13.6836 17.2612L12.9401 16.8151L13.895 15.2234ZM14.6386 15.6695L16.9277 17.0429L15.9727 18.6346L13.6836 17.2611L14.6386 15.6695ZM16.928 17.0431C17.4914 17.3814 17.6737 18.112 17.3358 18.6754L15.744 17.7207C15.555 18.0358 15.657 18.445 15.9724 18.6344L16.928 17.0431ZM17.3353 18.6763C16.9983 19.2367 16.2685 19.4237 15.7022 19.083L16.6591 17.4925C16.3414 17.3014 15.9327 17.407 15.7446 17.7198L17.3353 18.6763ZM15.7031 19.0836L13.414 17.7102L14.369 16.1185L16.6581 17.4919L15.7031 19.0836ZM13.4143 17.7104C13.5189 17.773 13.6475 17.7926 13.7671 17.7627L13.3169 15.9619C13.6766 15.872 14.0529 15.929 14.3686 16.1183L13.4143 17.7104ZM13.7671 17.7627C13.8865 17.7329 13.9908 17.6555 14.054 17.5502L12.4623 16.5952C12.6524 16.2784 12.9587 16.0515 13.3169 15.9619L13.7671 17.7627ZM14.0543 17.5497C14.1167 17.4456 14.136 17.3183 14.1065 17.1991L12.3048 17.6452C12.2162 17.2877 12.2727 16.9118 12.462 16.5958L14.0543 17.5497ZM14.106 17.1971C14.0756 17.0754 13.9971 16.9722 13.8948 16.9107L12.9383 18.5015C12.6238 18.3124 12.3954 18.0077 12.3053 17.6473L14.106 17.1971ZM13.894 16.9102L18.5347 19.6941L17.5798 21.2859L12.9391 18.5019L13.894 16.9102ZM18.5347 19.6941C19.0987 20.0325 19.7318 20.1402 20.3162 20.0209L20.6873 21.8396C19.6258 22.0563 18.5219 21.8511 17.5798 21.2858L18.5347 19.6941ZM20.3161 20.021C20.89 19.9038 21.3342 19.5858 21.5999 19.1428L23.1917 20.0975C22.6434 21.0117 21.7422 21.6242 20.6874 21.8396L20.3161 20.021ZM21.6001 19.1425C22.0547 18.3852 21.994 17.5688 21.4274 16.8824L22.8589 15.7008C23.924 16.9912 24.0526 18.6634 23.1916 20.0978L21.6001 19.1425ZM22.2351 17.2151L22.2348 17.2152L22.0509 15.3681L22.0512 15.3681L22.2351 17.2151Z" fill="#4CAF4F" mask="url(#path-4-inside-2_211_2339)"/>
</svg>
