<svg width="35" height="34" viewBox="0 0 35 34" fill="none" xmlns="http://www.w3.org/2000/svg">
<path d="M28.7313 29.4506V26.6664C28.7313 25.1895 28.1446 23.7731 27.1003 22.7288C26.056 21.6845 24.6396 21.0978 23.1627 21.0978H21.7706C21.4013 21.0978 21.0472 20.9511 20.7862 20.6901C20.5251 20.429 20.3784 20.0749 20.3784 19.7057V12.745C20.3784 12.0065 20.0851 11.2984 19.5629 10.7762C19.0408 10.254 18.3326 9.9607 17.5941 9.9607C16.8557 9.9607 16.1475 10.254 15.6254 10.7762C15.1032 11.2984 14.8099 12.0065 14.8099 12.745V25.2742L11.4687 20.8194C11.2094 20.4736 10.8731 20.1929 10.4865 19.9996C10.0999 19.8063 9.67355 19.7057 9.24131 19.7057H8.63712C7.43292 19.7057 6.45703 20.6816 6.45703 21.8858C6.45703 22.2811 6.56423 22.6695 6.76748 23.0078L10.6334 29.4506M17.5941 5.78429V4.39215V5.78429ZM25.947 14.1371H27.3391H25.947ZM7.84917 14.1371H9.24131H7.84917ZM11.111 7.65393L10.1267 6.66969L11.111 7.65393ZM24.0773 7.65393L25.0616 6.66969L24.0773 7.65393Z" fill="#4CAF4F"/>
<path d="M28.7313 29.4506V26.6664C28.7313 25.1895 28.1446 23.7731 27.1003 22.7288C26.056 21.6845 24.6396 21.0978 23.1627 21.0978H21.7706C21.4013 21.0978 21.0472 20.9511 20.7862 20.6901C20.5251 20.429 20.3784 20.0749 20.3784 19.7057V12.745C20.3784 12.0065 20.0851 11.2984 19.5629 10.7762C19.0408 10.254 18.3326 9.9607 17.5941 9.9607V9.9607C16.8557 9.9607 16.1475 10.254 15.6254 10.7762C15.1032 11.2984 14.8099 12.0065 14.8099 12.745V25.2742L11.4687 20.8194C11.2094 20.4736 10.8731 20.1929 10.4865 19.9996C10.0999 19.8063 9.67355 19.7057 9.24131 19.7057H8.63712C7.43292 19.7057 6.45703 20.6816 6.45703 21.8858C6.45703 22.2811 6.56423 22.6695 6.76748 23.0078L10.6334 29.4506M17.5941 5.78429V4.39215M25.947 14.1371H27.3391M7.84917 14.1371H9.24131M11.111 7.65393L10.1267 6.66969M24.0773 7.65393L25.0616 6.66969" stroke="#4CAF4F" stroke-width="1.39214" stroke-linecap="round" stroke-linejoin="round"/>
</svg>
