<svg width="35" height="34" viewBox="0 0 35 34" fill="none" xmlns="http://www.w3.org/2000/svg">
<path d="M12.3741 6.45339C13.9133 6.45349 15.4176 6.89764 16.7081 7.72878L16.963 7.89968C18.2241 8.78212 19.2024 10.0083 19.7833 11.429L19.8936 11.7161C20.421 13.1623 20.5195 14.7277 20.1807 16.2249L20.1075 16.5227C19.684 18.1091 18.7829 19.5273 17.5264 20.5843L17.1036 20.9397L17.6075 21.1673C19.677 22.1038 21.4576 23.578 22.7647 25.4358L22.7696 25.4426L22.7755 25.4495C22.8515 25.5469 22.9118 25.6555 22.9551 25.7708L22.9932 25.8889C23.0353 26.0485 23.0438 26.215 23.0196 26.3782C23.0014 26.5005 22.9648 26.6189 22.9112 26.7298L22.8516 26.8382C22.7867 26.9436 22.7065 27.0386 22.6133 27.1194L22.5167 27.1956C22.3818 27.2905 22.2287 27.3567 22.0674 27.3909C21.9464 27.4165 21.822 27.4241 21.6993 27.4124L21.5772 27.3938C21.4154 27.3616 21.2611 27.2968 21.1251 27.2034H21.126C20.99 27.11 20.8735 26.9903 20.7852 26.8509L20.7813 26.844L20.7764 26.8372L20.5948 26.5872C19.7323 25.434 18.6372 24.4749 17.3799 23.7727L17.1085 23.6262C15.6461 22.8662 14.0222 22.4691 12.3741 22.469C10.8288 22.469 9.30464 22.8186 7.9151 23.4885L7.63873 23.6262C6.26754 24.3389 5.07642 25.3518 4.1524 26.5872L3.97076 26.8372L3.96979 26.8382C3.88625 26.9581 3.78208 27.0617 3.66217 27.1438L3.53717 27.218C3.40759 27.2855 3.26736 27.3289 3.12311 27.346L2.9776 27.3548H2.97565C2.78802 27.3554 2.60377 27.3111 2.43756 27.2278L2.27838 27.1321L2.27643 27.1311L2.1817 27.0569C1.97022 26.8738 1.82764 26.622 1.77936 26.344C1.73111 26.066 1.78062 25.7811 1.91803 25.5374L1.98248 25.4358C3.28955 23.578 5.0702 22.1038 7.13971 21.1673L7.64362 20.9397L7.22076 20.5843C6.0429 19.5934 5.17719 18.2853 4.72467 16.8186L4.63971 16.5227C4.24282 15.0357 4.28389 13.4681 4.75397 12.0071L4.85358 11.7161C5.38096 10.27 6.31325 9.00895 7.53619 8.08132L7.78424 7.89968C9.12947 6.95841 10.7322 6.45339 12.3741 6.45339ZM23.0098 6.46316H23.0118C24.5518 6.45875 26.0582 6.89945 27.3506 7.72878L27.6065 7.90066C28.8696 8.7817 29.8492 10.0076 30.4307 11.429L30.5421 11.7161C31.07 13.1629 31.1677 14.7292 30.8272 16.2268L30.754 16.5247C30.3285 18.1114 29.4239 19.5288 28.1641 20.5833L27.7393 20.9387L28.2442 21.1673C30.1845 22.0453 31.8712 23.3958 33.1514 25.0921L33.4014 25.4358L33.4034 25.4378C33.4731 25.5353 33.5275 25.6429 33.5655 25.7561L33.5977 25.8704C33.6244 25.9873 33.6338 26.1077 33.6251 26.2268L33.6104 26.345C33.5899 26.463 33.5521 26.5774 33.4981 26.6839L33.4385 26.7874C33.3741 26.8883 33.295 26.9786 33.2042 27.0559L33.1094 27.1292L33.1055 27.1321C32.9022 27.2774 32.6582 27.3546 32.4083 27.3538C32.2132 27.3525 32.0208 27.3052 31.8477 27.2151C31.7179 27.1475 31.6017 27.0574 31.504 26.9495L31.4122 26.8352C30.4631 25.4891 29.2049 24.3902 27.7432 23.6311C26.3726 22.9194 24.8604 22.5257 23.3194 22.4778L23.0108 22.4729L22.8897 22.4671C22.6508 22.4433 22.424 22.3497 22.2383 22.1975L22.1495 22.1165C21.9211 21.8881 21.7921 21.5782 21.7921 21.2551C21.7921 20.9723 21.8906 20.6995 22.0684 20.4827L22.1495 20.3938C22.3779 20.1655 22.6878 20.0374 23.0108 20.0374C24.3954 20.0373 25.7267 19.521 26.7481 18.596L26.9483 18.4055C27.9924 17.3613 28.5792 15.9447 28.5792 14.468C28.5791 13.0836 28.0635 11.7521 27.1387 10.7307L26.9483 10.5305C25.9692 9.55142 24.6627 8.97472 23.2862 8.90652L23.0108 8.89968C22.6292 8.89898 22.2488 8.93827 21.876 9.01687L21.5049 9.10867L21.3839 9.13894C21.2654 9.16179 21.1439 9.16649 21.0235 9.15359C20.9029 9.14067 20.785 9.11032 20.6739 9.06277L20.5655 9.01003C20.4594 8.95158 20.3624 8.87794 20.2784 8.79128L20.1993 8.70046C20.1238 8.60542 20.0627 8.49956 20.0186 8.38699L19.9805 8.27273C19.9477 8.15596 19.9328 8.03515 19.9356 7.91433L19.9444 7.79421C19.9592 7.67392 19.9919 7.55683 20.0411 7.44656L20.0958 7.33913C20.1559 7.23392 20.2305 7.13764 20.3184 7.05495L20.4112 6.97683C20.5072 6.90305 20.6136 6.84429 20.7266 6.80202L20.8419 6.76492L20.8477 6.76394C21.4629 6.58881 22.0969 6.48932 22.7354 6.46804L23.0098 6.46316ZM13.46 9.0071C12.4474 8.80567 11.4 8.88973 10.4346 9.24831L10.2422 9.32351C9.28845 9.71864 8.46478 10.3709 7.86139 11.2053L7.74323 11.3743C7.13141 12.2899 6.80481 13.3668 6.80475 14.468C6.80475 15.8526 7.32022 17.1848 8.24518 18.2063L8.43561 18.4055C9.47991 19.4498 10.8972 20.0374 12.3741 20.0374C13.4064 20.0373 14.4173 19.7502 15.294 19.2102L15.4669 19.0989C16.3254 18.5253 17.0066 17.7245 17.4356 16.7884L17.5186 16.5989C17.9136 15.6452 18.0345 14.6018 17.8712 13.5852L17.835 13.3821C17.6336 12.3693 17.155 11.4337 16.4542 10.679L16.3116 10.5305C15.5814 9.8004 14.6632 9.28919 13.6612 9.05105L13.46 9.0071Z" fill="#4CAF4F" stroke="#4CAF4F" stroke-width="0.696069"/>
</svg>
