<svg width="34" height="34" viewBox="0 0 34 34" fill="none" xmlns="http://www.w3.org/2000/svg">
<path d="M7.05469 5.78391H26.8926C27.9742 5.78391 29.0145 6.18732 29.8125 6.90988L29.9688 7.05832C30.7846 7.87413 31.2431 8.98077 31.2432 10.1345V23.7077C31.2432 24.8615 30.7846 25.968 29.9688 26.7839C29.1529 27.5998 28.0464 28.0583 26.8926 28.0583H7.05469C5.97307 28.0583 4.93276 27.6559 4.13477 26.9333L3.97852 26.7839C3.16283 25.9681 2.7041 24.8614 2.7041 23.7077V10.1345C2.70416 9.05278 3.1074 8.01259 3.83008 7.21457L3.97852 7.05832C4.74331 6.29352 5.76372 5.84318 6.83887 5.78976L7.05469 5.78391ZM4.09668 23.7077C4.09668 24.3942 4.33533 25.0563 4.7666 25.5827L4.96289 25.7995C5.51762 26.3543 6.27018 26.6667 7.05469 26.6667H26.8926C27.6772 26.6667 28.4296 26.3543 28.9844 25.7995C29.5392 25.2447 29.8516 24.4923 29.8516 23.7077V13.4411H4.09668V23.7077ZM22.1943 20.4021H25.3271C25.4654 20.4022 25.5995 20.4427 25.7129 20.5183L25.8193 20.6052C25.9498 20.7356 26.0223 20.9129 26.0225 21.0974C26.0225 21.2818 25.9496 21.4591 25.8193 21.5896C25.6889 21.72 25.5116 21.7936 25.3271 21.7937H22.1943C22.0098 21.7936 21.8327 21.7201 21.7021 21.5896C21.5718 21.4591 21.498 21.2819 21.498 21.0974C21.4981 20.9591 21.5396 20.825 21.6152 20.7116L21.7021 20.6052C21.8326 20.4748 22.0098 20.4021 22.1943 20.4021ZM7.05469 7.17648C6.27018 7.17654 5.51763 7.48796 4.96289 8.04269C4.40816 8.59743 4.09674 9.34998 4.09668 10.1345V12.0486H29.8516V10.1345C29.8515 9.44804 29.6129 8.78585 29.1816 8.25949L28.9844 8.04269C28.4296 7.48808 27.677 7.17648 26.8926 7.17648H7.05469Z" fill="#4CAF4F" stroke="#4CAF4F" stroke-width="0.696069"/>
</svg>
